{"title":"Alien.1979.dir.cut.DVDRip.Xvid.AC3-Atilla82","uid":7104996,"size":1261972604,"categoryP":"video","categoryS":"movies","magnet":"?xt=urn:btih:22d1176c99326832afa5dbed6c59f631a4e2a42b&amp;dn=Alien.1979.dir.cut.DVDRip.Xvid.AC3-Atilla82&amp;tr=udp%3A%2F%2Ftracker.openbittorrent.com%3A80&amp;tr=udp%3A%2F%2Fopen.demonii.com%3A1337&amp;tr=udp%3A%2F%2Ftracker.coppersurfer.tk%3A6969&amp;tr=udp%3A%2F%2Fexodus.desync.com%3A6969","seeders":2,"leechers":0,"uploader":"Atilla82","files":3,"time":1331837811,"description":"Alien 1979 directors cut DVDRip Xvid AC3-Atilla82\n\n\n[img]http://www.pohrani.com/f/3n/vd/4NG23Js8/alienposter1979.jpg[/img]\n\n &lt;a href=&quot;\nhttp://www.imdb.com/title/tt0078748/&quot; rel=&quot;nofollow&quot; target=&quot;_NEW&quot;&gt;\nhttp://www.imdb.com/title/tt0078748/&lt;/a&gt;\n\n\nA mining ship, investigating a suspected SOS, lands on a distant planet. The crew discovers some strange creatures and investigates. \n\n\n[b]SCREENSHOTS[/b]\n[img]http://www.pohrani.com/f/1z/IA/1MwQ5nUw/alien1979directorscutdvd.jpg[/img]\n\n\n\n\nGeneral\nComplete name                            : Alien.1979.directors.cut.DVDRip.Xvid.AC3-Atilla82.avi\nFormat                                   : AVI\nFormat/Info                              : Audio Video Interleave\nFile size                                : 1.18 GiB\nDuration                                 : 1h 55mn\nOverall bit rate                         : 1 453 Kbps\nMovie name                               : Alien.1979.directors.cut.DVDRip.Xvid.AC3-Atilla82\nDirector                                 : Atilla82\nWriting application                      : VirtualDubMod 1.5.10.2 (build 2540/release)\nWriting library                          : VirtualDubMod build 2540/release\n\nVideo\nID                                       : 0\nFormat                                   : MPEG-4 Visual\nFormat profile                           : Advanced Simple@L5\nFormat settings, BVOP                    : No\nFormat settings, QPel                    : Yes\nFormat settings, GMC                     : No warppoints\nFormat settings, Matrix                  : Default (MPEG)\nCodec ID                                 : XVID\nCodec ID/Hint                            : XviD\nDuration                                 : 1h 55mn\nBit rate                                 : 995 Kbps\nWidth                                    : 720 pixels\nHeight                                   : 320 pixels\nDisplay aspect ratio                     : 2.25:1\nFrame rate                               : 25.000 fps\nColor space                              : YUV\nChroma subsampling                       : 4:2:0\nBit depth                                : 8 bits\nScan type                                : Progressive\nCompression mode                         : Lossy\nBits/(Pixel*Frame)                       : 0.173\nStream size                              : 824 MiB (68%)\nWriting library                          : XviD 64\n\nAudio\nID                                       : 1\nFormat                                   : AC-3\nFormat/Info                              : Audio Coding 3\nMode extension                           : CM (complete main)\nCodec ID                                 : 2000\nDuration                                 : 1h 55mn\nBit rate mode                            : Constant\nBit rate                                 : 448 Kbps\nChannel(s)                               : 6 channels\nChannel positions                        : Front: L C R, Side: L R, LFE\nSampling rate                            : 48.0 KHz\nBit depth                                : 16 bits\nCompression mode                         : Lossy\nStream size                              : 371 MiB (31%)\nAlignment                                : Split accross interleaves\nInterleave, duration                     : 40 ms (1.00 video frame)\nInterleave, preload duration             : 500 ms\n\n","torrent":{"xt":"urn:btih:22d1176c99326832afa5dbed6c59f631a4e2a42b","amp;dn":"Alien.1979.dir.cut.DVDRip.Xvid.AC3-Atilla82","amp;tr":["udp%3A%2F%2Ftracker.openbittorrent.com%3A80","udp%3A%2F%2Fopen.demonii.com%3A1337","udp%3A%2F%2Ftracker.coppersurfer.tk%3A6969","udp%3A%2F%2Fexodus.desync.com%3A6969"],"infoHash":"22d1176c99326832afa5dbed6c59f631a4e2a42b","infoHashBuffer":{"type":"Buffer","data":[34,209,23,108,153,50,104,50,175,165,219,237,108,89,246,49,164,226,164,43]},"announce":[],"urlList":[]}}